<?xml version="1.0" encoding="UTF-8" standalone="no"?>
<!-- Created with Inkscape (http://www.inkscape.org/) -->

<svg
   version="1.1"
   id="svg1"
   width="256"
   height="256"
   viewBox="0 0 256 256"
   sodipodi:docname="ZZB256.svg"
   inkscape:version="1.3 (0e150ed6c4, 2023-07-21)"
   xmlns:inkscape="http://www.inkscape.org/namespaces/inkscape"
   xmlns:sodipodi="http://sodipodi.sourceforge.net/DTD/sodipodi-0.dtd"
   xmlns="http://www.w3.org/2000/svg"
   xmlns:svg="http://www.w3.org/2000/svg">
  <defs
     id="defs1" />
  <sodipodi:namedview
     id="namedview1"
     pagecolor="#ffffff"
     bordercolor="#666666"
     borderopacity="1.0"
     inkscape:showpageshadow="2"
     inkscape:pageopacity="0.0"
     inkscape:pagecheckerboard="0"
     inkscape:deskcolor="#d1d1d1"
     inkscape:zoom="3.7148438"
     inkscape:cx="112.79075"
     inkscape:cy="127.19243"
     inkscape:window-width="1920"
     inkscape:window-height="1129"
     inkscape:window-x="-8"
     inkscape:window-y="-8"
     inkscape:window-maximized="1"
     inkscape:current-layer="g1" />
  <g
     inkscape:groupmode="layer"
     inkscape:label="Image"
     id="g1"
     transform="translate(-15.074658,-0.80757098)">
    <g
       id="g2"
       transform="translate(15.074658,0.80757098)">
      <path
         style="fill:#3cd6c7"
         d="m 74.5982,187.53524 c -0.340238,-1.35562 0.367812,-6.64312 1.573446,-11.75 C 77.941415,168.28876 78.37664,163.32134 78.43084,150 78.510036,130.53501 77.645086,125.25789 70.916782,104.15622 68.171174,95.545301 66.054195,87.375 66.212384,86 c 0.241912,-2.102735 1.434708,-0.821708 7.5063,8.061541 5.973758,8.740109 23.892874,28.660239 24.887002,27.666109 0.155033,-0.15504 -0.18536,-2.29468 -0.756428,-4.75476 C 96.36833,110.59323 97.404871,83.774143 99.376186,77.465745 101.00738,72.245768 106.11333,66 108.7495,66 c 1.15112,0 1.3848,0.784979 0.97868,3.287591 -0.45791,2.821771 -0.13804,3.514554 2.2575,4.889403 3.07624,1.765523 10.65077,15.821531 13.64548,25.321852 0.95375,3.025634 1.9909,5.501154 2.30479,5.501154 0.31388,0 1.61771,-3.00001 2.89739,-6.666684 C 135.74691,84.254434 142.2742,73 145.52602,73 c 0.98236,0 1.19411,-0.94981 0.78027,-3.5 -0.44485,-2.741283 -0.23134,-3.5 0.98494,-3.5 2.3774,0 8.34944,7.597315 9.67174,12.303865 1.63537,5.820889 2.54117,34.247215 1.24071,38.936795 -0.93753,3.38085 -0.87351,3.65301 0.66552,2.82934 3.63437,-1.94506 17.9643,-17.99508 23.49617,-26.316555 3.19796,-4.810604 6.224,-8.999662 6.72455,-9.309017 1.981,-1.224328 0.68631,5.111912 -4.03289,19.737002 -6.50215,20.15055 -7.53764,26.32334 -7.51836,44.81857 0.0128,12.24647 0.48248,17.63841 2.23775,25.68751 1.63476,7.49646 1.96424,10.86439 1.24734,12.75 -1.42679,3.75273 -2.86659,3.15729 -5.28946,-2.18751 -2.01283,-4.44026 -2.18849,-6.78835 -2.69377,-36.00901 L 172.5,117.98198 l -15,8.38912 c -19.26818,10.77621 -21.08359,13.068 -23.32304,29.44323 -0.46527,3.40212 -0.52509,6.18567 -0.13293,6.18567 0.39216,0 2.74981,-2.38409 5.23922,-5.29798 5.83035,-6.82449 12.35818,-11.46059 13.92743,-9.89134 1.55317,1.55317 -0.11973,5.03129 -5.02023,10.43751 -5.51813,6.08758 -9.8103,12.71143 -12.2392,18.88798 -2.77106,7.04669 -4.53266,8.86383 -8.59286,8.86383 -3.23613,0 -3.47385,-0.29382 -8.29297,-10.25 -2.84772,-5.88334 -7.12289,-12.745 -10.03523,-16.10658 -5.99043,-6.91448 -7.38259,-9.28268 -6.62203,-11.26468 0.87257,-2.27388 4.01197,-0.21125 12.91074,8.4825 l 7.8189,7.63876 -0.5526,-3.5 c -2.68606,-17.01237 -4.07306,-20.78505 -8.97593,-24.41477 C 109.65728,132.65947 85.378742,119 84.130439,119 c -0.554601,0 -1.08821,12.55336 -1.307099,30.75 -0.348844,28.99999 -0.493419,31.02033 -2.540387,35.5 -2.373959,5.19528 -4.717891,6.13752 -5.684753,2.28524 z m 49.70514,-60.91409 c 0.61704,-4.38875 0.30124,-8.19607 -1.36175,-16.41749 -2.35015,-11.618626 -5.05111,-17.93487 -11.00316,-25.731071 -2.11101,-2.765075 -4.26795,-6.140075 -4.79321,-7.5 -0.95222,-2.465372 -0.95962,-2.461844 -2.53474,1.208513 -2.0916,4.873812 -4.60695,20.68573 -4.5845,28.818898 0.0242,8.7823 2.30459,13.46882 9.10724,18.71703 5.60294,4.32264 11.60127,7.42308 13.36678,6.90907 0.55,-0.16012 1.3615,-2.86235 1.80334,-6.00495 z M 141,129.95899 c 5.26801,-2.68577 11.53875,-8.4672 13.37039,-12.3271 1.01507,-2.13909 1.62809,-6.01693 1.62559,-10.28302 -0.005,-8.485403 -2.49391,-24.245129 -4.60646,-29.167768 -1.54434,-3.598618 -1.60032,-3.627908 -2.49826,-1.307142 -0.50519,1.305679 -2.70039,4.611888 -4.87822,7.347132 -5.66325,7.112735 -8.50376,13.803381 -10.91757,25.715598 -1.92508,9.50029 -2.09974,16.85374 -0.51974,21.88226 0.46885,1.49219 2.90356,0.95464 8.42427,-1.85996 z"
         id="path3" />
      <path
         style="fill:#000000"
         d="M 0,128 V 0 H 128 256 V 128 256 H 128 0 Z m 80.282953,57.25 c 2.046968,-4.47967 2.191543,-6.50001 2.540387,-35.5 0.218889,-18.19664 0.752498,-30.75 1.307099,-30.75 1.248303,0 25.526841,13.65947 29.478831,16.58523 4.90287,3.62972 6.28987,7.4024 8.97593,24.41477 l 0.5526,3.5 -7.8189,-7.63876 c -8.89877,-8.69375 -12.03817,-10.75638 -12.91074,-8.4825 -0.76056,1.982 0.6316,4.3502 6.62203,11.26468 2.91234,3.36158 7.18751,10.22324 10.03523,16.10658 4.81912,9.95618 5.05684,10.25 8.29297,10.25 4.0602,0 5.8218,-1.81714 8.59286,-8.86383 2.4289,-6.17655 6.72107,-12.8004 12.2392,-18.88798 4.9005,-5.40622 6.5734,-8.88434 5.02023,-10.43751 -1.56925,-1.56925 -8.09708,3.06685 -13.92743,9.89134 -2.48941,2.91389 -4.84706,5.29798 -5.23922,5.29798 -0.39216,0 -0.33234,-2.78355 0.13293,-6.18567 2.23945,-16.37523 4.05486,-18.66702 23.32304,-29.44323 l 15,-8.38912 0.54053,31.25901 c 0.50528,29.22066 0.68094,31.56875 2.69377,36.00901 2.42287,5.3448 3.86267,5.94024 5.28946,2.18751 0.7169,-1.88561 0.38742,-5.25354 -1.24734,-12.75 -1.75527,-8.0491 -2.22498,-13.44104 -2.23775,-25.68751 -0.0193,-18.49523 1.01621,-24.66802 7.51836,-44.81857 4.7192,-14.62509 6.01389,-20.96133 4.03289,-19.737002 -0.50055,0.309355 -3.52659,4.498413 -6.72455,9.309017 -5.53187,8.321475 -19.8618,24.371495 -23.49617,26.316555 -1.53903,0.82367 -1.60305,0.55151 -0.66552,-2.82934 1.30046,-4.68958 0.39466,-33.115906 -1.24071,-38.936795 C 155.64067,73.597315 149.66863,66 147.29123,66 c -1.21628,0 -1.42979,0.758717 -0.98494,3.5 0.41384,2.55019 0.20209,3.5 -0.78027,3.5 -3.25182,0 -9.77911,11.254434 -14.69268,25.333316 C 129.55366,101.99999 128.24983,105 127.93595,105 c -0.31389,0 -1.35104,-2.47552 -2.30479,-5.501154 -2.99471,-9.500321 -10.56924,-23.556329 -13.64548,-25.321852 -2.39554,-1.374849 -2.71541,-2.067632 -2.2575,-4.889403 C 110.1343,66.784979 109.90062,66 108.7495,66 c -2.63617,0 -7.74212,6.245768 -9.373314,11.465745 -1.971315,6.308398 -3.007856,33.127485 -1.526928,39.507145 0.571068,2.46008 0.911461,4.59972 0.756428,4.75476 -0.994128,0.99413 -18.913244,-18.926 -24.887002,-27.666109 C 67.647092,85.178292 66.454296,83.897265 66.212384,86 c -0.158189,1.375 1.95879,9.545301 4.704398,18.15622 6.728304,21.10167 7.593254,26.37879 7.514058,45.84378 -0.0542,13.32134 -0.489425,18.28876 -2.259194,25.78524 C 73.929655,185.28197 74.093285,190 76.664638,190 c 0.796303,0 2.424544,-2.1375 3.618315,-4.75 z m 37.758127,-53.83095 c -6.06733,-2.62799 -14.24588,-9.66167 -16.17698,-13.91245 -1.15304,-2.53808 -1.82675,-6.38902 -1.83812,-10.5066 -0.0225,-8.133168 2.4929,-23.945086 4.5845,-28.818898 1.57512,-3.670357 1.58252,-3.673885 2.53474,-1.208513 0.52526,1.359925 2.6822,4.734925 4.79321,7.5 5.95205,7.796201 8.65301,14.112445 11.00316,25.731071 2.19772,10.865 1.98401,21.71626 -0.44159,22.42244 -0.55,0.16013 -2.55651,-0.38304 -4.45892,-1.20705 z m 14.53465,0.3999 c -1.58,-5.02852 -1.40534,-12.38197 0.51974,-21.88226 2.41381,-11.912217 5.25432,-18.602863 10.91757,-25.715598 2.17783,-2.735244 4.37303,-6.041453 4.87822,-7.347132 0.89794,-2.320766 0.95392,-2.291476 2.49826,1.307142 2.11255,4.922639 4.60148,20.682365 4.60646,29.167768 0.005,8.30256 -1.75461,12.42274 -7.37559,17.27145 -6.66279,5.74738 -15.28514,9.6159 -16.04466,7.19863 z"
         id="path2" />
    </g>
  </g>
</svg>
