<?xml version="1.0" encoding="UTF-8" standalone="no"?>
<!-- Created with Inkscape (http://www.inkscape.org/) -->

<svg
   version="1.1"
   id="svg1"
   width="256"
   height="256"
   viewBox="0 0 256 256"
   sodipodi:docname="zzb.svg"
   inkscape:version="1.3 (0e150ed6c4, 2023-07-21)"
   xmlns:inkscape="http://www.inkscape.org/namespaces/inkscape"
   xmlns:sodipodi="http://sodipodi.sourceforge.net/DTD/sodipodi-0.dtd"
   xmlns="http://www.w3.org/2000/svg"
   xmlns:svg="http://www.w3.org/2000/svg">
  <defs
     id="defs1" />
  <sodipodi:namedview
     id="namedview1"
     pagecolor="#ffffff"
     bordercolor="#666666"
     borderopacity="1.0"
     inkscape:showpageshadow="2"
     inkscape:pageopacity="0.0"
     inkscape:pagecheckerboard="0"
     inkscape:deskcolor="#d1d1d1"
     inkscape:zoom="3.7148438"
     inkscape:cx="123.15457"
     inkscape:cy="126.92324"
     inkscape:window-width="1920"
     inkscape:window-height="1129"
     inkscape:window-x="-8"
     inkscape:window-y="-8"
     inkscape:window-maximized="1"
     inkscape:current-layer="g1" />
  <g
     inkscape:groupmode="layer"
     inkscape:label="Image"
     id="g1"
     transform="translate(-4.8454259,-1.0767613)">
    <g
       id="g2"
       transform="translate(4.8454259,1.0767613)">
      <path
         style="fill:#3ddaca"
         d="M 22.872445,250.34318 C 20.656461,247.66804 21.271616,235.80465 24.264352,223.5 28.959722,204.19495 30.25132,190.25333 29.73031,164.5 29.056607,131.19913 26.449765,116.46656 15.486303,84 8.2176007,62.474887 4,47.495245 4,43.204127 4,40.099723 4.1671329,39.89224 5.6727288,41.127555 6.5927296,41.8824 11.022631,48.125 15.516953,55 c 10.605465,16.223262 17.582275,25.339984 28.248211,36.912446 8.151856,8.844704 26.223023,25.432704 26.933114,24.722614 0.177692,-0.1777 -0.360701,-2.26111 -1.19643,-4.62982 -0.835728,-2.36871 -1.961684,-9.3014 -2.502124,-15.40599 C 64.284864,65.933314 67.469043,32.823703 74.52257,18.375462 77.648302,11.972802 85.931203,4 89.457159,4 91.735186,4 91.99631,4.3905287 91.964565,7.75 91.945075,9.8125 91.286021,12.625 90.5,14 c -1.974901,3.454728 -1.899921,3.670016 1.516146,4.353229 5.358046,1.071609 11.391714,8.624018 18.360244,22.98171 6.21274,12.80048 13.15136,29.789312 15.68958,38.415061 0.68783,2.3375 1.5408,4.25 1.89548,4.25 0.35469,0 1.68242,-3.2625 2.95052,-7.25 6.09555,-19.16723 18.89129,-46.30904 25.04955,-53.134122 1.94617,-2.15689 5.04048,-4.550369 6.87625,-5.31884 2.53065,-1.059354 3.16892,-1.808281 2.63952,-3.097129 -0.38403,-0.93495 -0.93115,-3.60442 -1.21582,-5.9321559 -0.65318,-5.3411048 1.24177,-6.3559179 6.17508,-3.3069676 C 177.4395,10.288844 183.5795,20.683877 186.40773,33 c 4.56034,19.858933 4.66385,68.71291 0.16839,79.47206 -1.37496,3.29075 -1.35895,3.4816 0.22067,2.63 3.01087,-1.6232 19.23768,-16.911031 26.94287,-25.383791 C 223.76031,78.699391 231.04823,69.064929 241.4083,53.140948 255.99988,30.712907 256.01391,36.537063 241.4754,81 c -12.42385,37.99574 -14.45851,49.1107 -15.19363,83 -0.546,25.17101 0.74743,39.0917 5.43549,58.5 3.32365,13.75972 3.7313,25.96551 0.93553,28.01109 -2.88681,2.11219 -4.42678,0.80541 -8.10136,-6.87461 -5.15195,-10.76779 -5.74429,-18.39747 -6.27975,-80.88648 -0.25804,-30.1125 -0.78662,-54.75 -1.17463,-54.75 -0.79168,0 -42.65528,23.25542 -53.7943,29.88299 -14.00551,8.33308 -19.39603,18.36107 -22.75426,42.32971 -0.8698,6.20801 -1.82838,12.8623 -2.13019,14.7873 -0.52096,3.3228 0.17604,2.78481 13.76648,-10.62584 7.87336,-7.76921 16.10717,-15.30671 18.29734,-16.75 4.44813,-2.93124 8.28407,-3.397 9.1608,-1.11229 1.06423,2.77335 -4.46144,11.89985 -12.84685,21.21854 -10.43707,11.5987 -17.69285,23.07641 -23.32598,36.89867 -6.00054,14.72379 -9.47057,19.12211 -13.2201,16.75669 -1.3219,-0.83393 -2.28401,-0.75413 -3.93294,0.32619 -4.2076,2.75666 -7.80485,-1.7617 -14.15004,-17.77333 -5.0748,-12.80587 -12.917832,-24.92622 -24.075758,-37.20585 -9.504559,-10.46005 -13.49094,-18.32626 -10.531807,-20.78212 2.940006,-2.43999 10.316079,2.77352 25.081075,17.72766 7.7773,7.87693 14.4303,14.32168 14.78445,14.32168 1.54484,0 -3.67744,-31.92699 -6.42227,-39.2632 -2.85661,-7.63497 -7.06312,-13.09359 -13.250539,-17.1947 C 94.863477,139.62744 80.575,131.35661 66,123.16248 l -26.5,-14.89842 -0.644329,45.11797 c -0.632305,44.27602 -2.019071,72.70636 -3.980346,81.60179 -1.201891,5.45122 -4.37294,12.80357 -6.568508,15.22964 -2.015847,2.22749 -3.664071,2.26683 -5.434372,0.12972 z M 119.86734,134.25 c 0.51944,-2.0625 1.22642,-8.025 1.57106,-13.25 0.55316,-8.38638 0.20407,-11.66863 -2.97804,-28 C 113.42188,67.141314 107.56943,53.614159 95.439293,39.789892 92.403798,36.330451 88.658811,30.893766 87.117101,27.708368 83.968387,21.202666 83.208931,21.359676 80.451864,29.086334 73.3548,48.9758 69.497099,90.380265 73.497443,103.72769 c 3.261478,10.88214 23.530304,27.96409 39.002557,32.87016 5.91688,1.87618 6.33727,1.74221 7.36734,-2.34785 z M 152.5,132.96421 c 14.61627,-7.28307 27.83823,-20.38847 30.67546,-30.40504 2.64291,-9.330591 0.41334,-41.356865 -4.28443,-61.542721 C 177.07734,33.223205 172.79119,22 171.62863,22 c -0.26511,0 -1.57538,2.3625 -2.91172,5.25 -1.33633,2.8875 -5.15927,8.489213 -8.49542,12.44825 -12.19216,14.468547 -17.57327,27.082045 -22.55852,52.877961 -3.04492,15.755789 -3.42903,19.414299 -2.99223,28.499999 0.27563,5.73309 0.96089,11.92729 1.52282,13.76489 0.969,3.16882 1.20949,3.30935 4.66406,2.72525 2.00331,-0.33872 7.24238,-2.40968 11.64238,-4.60214 z"
         id="path3" />
      <path
         style="fill:#000101"
         d="M 0,128 V 0 H 128 256 V 128 256 H 128 0 Z m 28.306817,122.21346 c 2.195568,-2.42607 5.366617,-9.77842 6.568508,-15.22964 1.961275,-8.89543 3.348041,-37.32577 3.980346,-81.60179 L 39.5,108.26406 66,123.16248 c 14.575,8.19413 28.863477,16.46496 31.752171,18.37962 6.187419,4.10111 10.393929,9.55973 13.250539,17.1947 2.74483,7.33621 7.96711,39.2632 6.42227,39.2632 -0.35415,0 -7.00715,-6.44475 -14.78445,-14.32168 -14.764996,-14.95414 -22.141069,-20.16765 -25.081075,-17.72766 -2.959133,2.45586 1.027248,10.32207 10.531807,20.78212 11.157926,12.27963 19.000958,24.39998 24.075758,37.20585 6.34519,16.01163 9.94244,20.52999 14.15004,17.77333 1.64893,-1.08032 2.61104,-1.16012 3.93294,-0.32619 3.74953,2.36542 7.21956,-2.0329 13.2201,-16.75669 5.63313,-13.82226 12.88891,-25.29997 23.32598,-36.89867 8.38541,-9.31869 13.91108,-18.44519 12.84685,-21.21854 -0.87673,-2.28471 -4.71267,-1.81895 -9.1608,1.11229 -2.19017,1.44329 -10.42398,8.98079 -18.29734,16.75 -13.59044,13.41065 -14.28744,13.94864 -13.76648,10.62584 0.30181,-1.925 1.26039,-8.57929 2.13019,-14.7873 3.35823,-23.96864 8.74875,-33.99663 22.75426,-42.32971 C 174.44178,131.25542 216.30538,108 217.09706,108 c 0.38801,0 0.91659,24.6375 1.17463,54.75 0.53546,62.48901 1.1278,70.11869 6.27975,80.88648 3.67458,7.68002 5.21455,8.9868 8.10136,6.87461 2.79577,-2.04558 2.38812,-14.25137 -0.93553,-28.01109 -4.68806,-19.4083 -5.98149,-33.32899 -5.43549,-58.5 0.73512,-33.8893 2.76978,-45.00426 15.19363,-83 14.5385,-44.462937 14.52447,-50.287093 -0.0671,-27.859052 -10.36007,15.923981 -17.64799,25.558443 -27.66864,36.577321 -7.70519,8.47276 -23.932,23.760591 -26.94287,25.383791 -1.57962,0.8516 -1.59563,0.66075 -0.22067,-2.63 C 191.07158,101.71291 190.96807,52.858933 186.40773,33 183.5795,20.683877 177.4395,10.288844 170.43655,5.9607855 c -4.93331,-3.0489503 -6.82826,-2.0341372 -6.17508,3.3069676 0.28467,2.3277359 0.83179,4.9972059 1.21582,5.9321559 0.5294,1.288848 -0.10887,2.037775 -2.63952,3.097129 -1.83577,0.768471 -4.93008,3.16195 -6.87625,5.31884 -6.15826,6.825082 -18.954,33.966892 -25.04955,53.134122 -1.2681,3.9875 -2.59583,7.25 -2.95052,7.25 -0.35468,0 -1.20765,-1.9125 -1.89548,-4.25 C 123.52775,71.124251 116.58913,54.135419 110.37639,41.334939 103.40786,26.977247 97.374192,19.424838 92.016146,18.353229 88.600079,17.670016 88.525099,17.454728 90.5,14 91.286021,12.625 91.945075,9.8125 91.964565,7.75 91.99631,4.3905287 91.735186,4 89.457159,4 85.931203,4 77.648302,11.972802 74.52257,18.375462 67.469043,32.823703 64.284864,65.933314 66.999724,96.59925 c 0.54044,6.10459 1.666396,13.03728 2.502124,15.40599 0.835729,2.36871 1.374122,4.45212 1.19643,4.62982 C 69.988187,117.34515 51.91702,100.75715 43.765164,91.912446 33.099228,80.339984 26.122418,71.223262 15.516953,55 11.022631,48.125 6.5927296,41.8824 5.6727288,41.127555 1.48055,37.687946 4.9169685,52.700587 15.486303,84 c 10.963462,32.46656 13.570304,47.19913 14.244007,80.5 0.52101,25.75333 -0.770588,39.69495 -5.465958,59 -4.035147,16.59053 -3.532398,28.5 1.203105,28.5 0.672412,0 1.950125,-0.80394 2.83936,-1.78654 z M 112.5,136.59785 C 97.027747,131.69178 76.758921,114.60983 73.497443,103.72769 69.497099,90.380265 73.3548,48.9758 80.451864,29.086334 c 2.757067,-7.726658 3.516523,-7.883668 6.665237,-1.377966 1.54171,3.185398 5.286697,8.622083 8.322192,12.081524 C 107.56943,53.614159 113.42188,67.141314 118.46036,93 c 3.18211,16.33137 3.5312,19.61362 2.97804,28 -0.73387,11.12593 -2.03261,17.02666 -3.72694,16.9331 -0.6663,-0.0368 -3.01146,-0.63765 -5.21146,-1.33525 z m 23.69356,-1.75675 c -0.56193,-1.8376 -1.24719,-8.0318 -1.52282,-13.76489 -0.4368,-9.0857 -0.0527,-12.74421 2.99223,-28.499999 4.98525,-25.795916 10.36636,-38.409414 22.55852,-52.877961 3.33615,-3.959037 7.15909,-9.56075 8.49542,-12.44825 1.33634,-2.8875 2.64661,-5.25 2.91172,-5.25 1.16256,0 5.44871,11.223205 7.2624,19.016449 4.69777,20.185856 6.92734,52.21213 4.28443,61.542721 -1.81088,6.39312 -6.82255,13.04598 -15.06611,19.99987 -8.00714,6.75445 -21.10679,13.96832 -27.25173,15.00731 -3.45457,0.5841 -3.69506,0.44357 -4.66406,-2.72525 z"
         id="path2" />
    </g>
  </g>
</svg>
